<svg xmlns="http://www.w3.org/2000/svg"
     xmlns:xlink="http://www.w3.org/1999/xlink"
     version="1.1"
     x="0px"
     y="0px"
     viewBox="0 0 100 100"
     enable-background="new 0 0 100 100"
     xml:space="preserve">
  <path d="M93.152,83.404l-20.12-20.119c-1.325-1.325-3.084-2.061-4.953-2.061c-0.004-0.002-0.011-0.002-0.015-0.004  c-0.037,0-0.073,0.006-0.109,0.006c4.577-6.039,7.059-13.364,7.061-21.074c0-9.347-3.641-18.135-10.252-24.744  C58.154,8.801,49.367,5.16,40.021,5.16c-9.348,0-18.135,3.641-24.744,10.25c-13.644,13.643-13.644,35.844,0,49.488  c6.609,6.61,15.396,10.25,24.74,10.25c7.709,0,15.034-2.482,21.075-7.061c0,0.042-0.006,0.084-0.006,0.126  c0.004,1.87,0.734,3.629,2.059,4.952l20.123,20.127c1.324,1.321,3.084,2.055,4.955,2.059c0.002-0.002,0.008,0,0.014,0  c1.865,0,3.617-0.727,4.933-2.043c1.322-1.322,2.049-3.08,2.046-4.951C95.212,86.488,94.479,84.729,93.152,83.404z M59.334,59.471  c-5.161,5.161-12.021,8.002-19.317,8.002c-7.295,0-14.153-2.841-19.312-8c-10.651-10.653-10.652-27.985,0-38.636  c5.158-5.159,12.018-8.001,19.315-8.001c7.296,0,14.156,2.842,19.315,8.001c5.162,5.159,8.004,12.02,8.004,19.316  C67.339,47.45,64.496,54.311,59.334,59.471z" fill="#2E7D32"/>
  <path d="M26.135,44.103c-1.068-3.631-0.879-7.559,0.531-11.059c0.495-1.229-0.1-2.626-1.328-3.121  c-1.233-0.498-2.627,0.1-3.121,1.328c-1.813,4.498-2.056,9.542-0.686,14.2c0.718,2.46,1.865,4.752,3.407,6.814  c0.472,0.629,1.192,0.963,1.923,0.963c0.5,0,1.004-0.156,1.435-0.479c1.061-0.794,1.277-2.297,0.484-3.358  C27.583,47.792,26.692,46.013,26.135,44.103z" fill="#2E7D32"/>
</svg>